<svg id="Camada_1" data-name="Camada 1" xmlns="http://www.w3.org/2000/svg" xmlns:xlink="http://www.w3.org/1999/xlink" viewBox="0 0 40.37 51.83"><defs><style>.cls-1{fill:url(#Gradiente_sem_nome_12);}.cls-2{fill:#4874b9;}</style><linearGradient id="Gradiente_sem_nome_12" x1="5.91" y1="5.91" x2="34.46" y2="34.46" gradientUnits="userSpaceOnUse"><stop offset="0" stop-color="#344f9e"/><stop offset="1" stop-color="#57bbeb"/></linearGradient></defs><path class="cls-1" d="M20.19,0A20.19,20.19,0,1,0,40.37,20.18,20.18,20.18,0,0,0,20.19,0Zm0,35.07a14.73,14.73,0,0,1-7-1.75l4.19-5.88h6.13a1.52,1.52,0,0,0,.81-.19,1.54,1.54,0,0,0,.66-.74L27.05,22a3.88,3.88,0,1,0-3.88-3.88,3.83,3.83,0,0,0,.94,2.52l-1.64,3.56h-5.9a1.47,1.47,0,0,0-1.35.73l-4.69,6.55a14.86,14.86,0,1,1,9.66,3.58Zm5.28-16.94a1.59,1.59,0,1,1,1.58,1.58A1.58,1.58,0,0,1,25.47,18.13Z"/><path class="cls-2" d="M4.64,49.1c0,.43-.17.65-.53.65H1.59v2H.21V47.84a.49.49,0,0,1,.55-.55H5c0,.43-.18.65-.54.65H1.59V49.1Z"/><path class="cls-2" d="M6.78,47.29v4.42H5.4V47.29Z"/><path class="cls-2" d="M9,47.66,11,50V47.29h1.38v3.84c0,.38-.2.58-.61.58h-.21a1.51,1.51,0,0,1-1-.49L8.61,49v2.68H7.23V47.88c0-.39.16-.59.5-.59h.59A1,1,0,0,1,9,47.66Z"/><path class="cls-2" d="M14.18,51.71H12.8l1.45-3.86a.77.77,0,0,1,.77-.56h1.32a.78.78,0,0,1,.78.56l1.44,3.86H17.18l-.58-1.48H14.76ZM15,49.58h1.36l-.68-1.87Z"/><path class="cls-2" d="M20.73,47.66l2,2.31V47.29h1.38v3.84c0,.38-.21.58-.62.58h-.2a1.51,1.51,0,0,1-1.06-.49L20.36,49v2.68H19V47.88c0-.39.17-.59.5-.59h.6A1,1,0,0,1,20.73,47.66Z"/><path class="cls-2" d="M29,47.52a1.69,1.69,0,0,1,1,1.65H28.54c0-.79-.43-1.18-1.25-1.18S26,48.52,26,49.56s.44,1.63,1.34,1.63a1.1,1.1,0,0,0,1.25-1.25h1.38a1.77,1.77,0,0,1-.53,1.48,3.81,3.81,0,0,1-2.14.41,3.84,3.84,0,0,1-2-.32,2.29,2.29,0,0,1-.65-1.92q0-1.62.93-2.07a4.64,4.64,0,0,1,1.72-.26A4.66,4.66,0,0,1,29,47.52Z"/><path class="cls-2" d="M30.39,51.1a.55.55,0,0,1,.3-.38,1.14,1.14,0,0,1,.65-.12,1,1,0,0,1,.58.2.39.39,0,0,1,.16.41.52.52,0,0,1-.28.38,1.05,1.05,0,0,1-.63.12,1,1,0,0,1-.58-.2A.47.47,0,0,1,30.39,51.1Z"/><path class="cls-2" d="M34,47.29v4.42H32.57V47.29Z"/><path class="cls-2" d="M35.78,51.71H34.4l1.44-3.86a.79.79,0,0,1,.78-.56h1.32a.77.77,0,0,1,.77.56l1.45,3.86H38.78l-.58-1.48H36.36Zm.82-2.13H38l-.68-1.87Z"/></svg>