<svg id="Camada_1" data-name="Camada 1" xmlns="http://www.w3.org/2000/svg" viewBox="0 0 111.52 12.74"><defs><style>.cls-1{fill:#4874b9;}</style></defs><path class="cls-1" d="M12.38,5.14c0,1.2-.5,1.79-1.49,1.79h-7V12.4H0V1.62A1.36,1.36,0,0,1,1.54.08H13.3c0,1.2-.5,1.8-1.49,1.8h-8V5.14Z"/><path class="cls-1" d="M18.33.08V12.4H14.48V.08Z"/><path class="cls-1" d="M24.47,1.1l5.6,6.45V.08h3.85V10.79c0,1.07-.57,1.61-1.72,1.61h-.56a4.18,4.18,0,0,1-3-1.36L23.44,4.93V12.4H19.59V1.72C19.59.63,20.05.08,21,.08h1.67A2.91,2.91,0,0,1,24.47,1.1Z"/><path class="cls-1" d="M39,12.4H35.15l4-10.76A2.16,2.16,0,0,1,41.34.08H45a2.15,2.15,0,0,1,2.15,1.56l4,10.76H47.37L45.76,8.27H40.62Zm2.29-5.93h3.8l-1.9-5.24Z"/><path class="cls-1" d="M57.29,1.1l5.6,6.45V.08h3.85V10.79c0,1.07-.58,1.61-1.72,1.61h-.57a4.16,4.16,0,0,1-3-1.36L56.26,4.93V12.4H52.41V1.72c0-1.09.46-1.64,1.39-1.64h1.66A2.9,2.9,0,0,1,57.29,1.1Z"/><path class="cls-1" d="M80.3.72c1.71.8,2.59,2.34,2.64,4.6H79.09c0-2.2-1.2-3.29-3.49-3.29q-3.75,0-3.75,4.39Q71.85,11,75.6,11q3.5,0,3.49-3.5h3.85c0,2-.49,3.38-1.48,4.14s-3,1.13-6,1.13-4.87-.29-5.61-.88q-1.82-1.38-1.82-5.36Q68.05,2,70.64.72A13,13,0,0,1,75.47,0,13.07,13.07,0,0,1,80.3.72Z"/><path class="cls-1" d="M84.25,10.71a1.47,1.47,0,0,1,.85-1.05,3.12,3.12,0,0,1,1.8-.34,2.77,2.77,0,0,1,1.61.55A1.11,1.11,0,0,1,89,11a1.42,1.42,0,0,1-.8,1.05,3,3,0,0,1-1.75.33,2.64,2.64,0,0,1-1.61-.55A1.29,1.29,0,0,1,84.25,10.71Z"/><path class="cls-1" d="M94.19.08V12.4H90.34V.08Z"/><path class="cls-1" d="M99.3,12.4H95.45l4-10.76A2.15,2.15,0,0,1,101.64.08h3.69a2.15,2.15,0,0,1,2.16,1.56l4,10.76h-3.85l-1.62-4.13h-5.13Zm2.28-5.93h3.81l-1.91-5.24Z"/></svg>