<svg id="Camada_1" data-name="Camada 1" xmlns="http://www.w3.org/2000/svg" xmlns:xlink="http://www.w3.org/1999/xlink" viewBox="0 0 40.37 40.37"><defs><style>.cls-1{fill:url(#Gradiente_sem_nome_12);}</style><linearGradient id="Gradiente_sem_nome_12" x1="5.91" y1="5.91" x2="34.46" y2="34.46" gradientUnits="userSpaceOnUse"><stop offset="0" stop-color="#344f9e"/><stop offset="1" stop-color="#57bbeb"/></linearGradient></defs><path class="cls-1" d="M20.19,0A20.19,20.19,0,1,0,40.37,20.18,20.18,20.18,0,0,0,20.19,0Zm0,35.07a14.73,14.73,0,0,1-7-1.75l4.19-5.88h6.13a1.52,1.52,0,0,0,.81-.19,1.54,1.54,0,0,0,.66-.74L27.05,22a3.88,3.88,0,1,0-3.88-3.88,3.83,3.83,0,0,0,.94,2.52l-1.64,3.56h-5.9a1.47,1.47,0,0,0-1.35.73l-4.69,6.55a14.86,14.86,0,1,1,9.66,3.58Zm5.28-16.94a1.59,1.59,0,1,1,1.58,1.58A1.58,1.58,0,0,1,25.47,18.13Z"/></svg>