<svg id="Camada_1" data-name="Camada 1" xmlns="http://www.w3.org/2000/svg" xmlns:xlink="http://www.w3.org/1999/xlink" viewBox="0 0 159.08 40.37"><defs><style>.cls-1{fill:url(#Gradiente_sem_nome_12);}.cls-2{fill:#4874b9;}</style><linearGradient id="Gradiente_sem_nome_12" x1="5.91" y1="5.91" x2="34.46" y2="34.46" gradientUnits="userSpaceOnUse"><stop offset="0" stop-color="#344f9e"/><stop offset="1" stop-color="#57bbeb"/></linearGradient></defs><path class="cls-1" d="M20.19,0A20.19,20.19,0,1,0,40.37,20.18,20.18,20.18,0,0,0,20.19,0Zm0,35.07a14.73,14.73,0,0,1-7-1.75l4.19-5.88h6.13a1.52,1.52,0,0,0,.81-.19,1.54,1.54,0,0,0,.66-.74L27.05,22a3.88,3.88,0,1,0-3.88-3.88,3.83,3.83,0,0,0,.94,2.52l-1.64,3.56h-5.9a1.47,1.47,0,0,0-1.35.73l-4.69,6.55a14.86,14.86,0,1,1,9.66,3.58Zm5.28-16.94a1.59,1.59,0,1,1,1.58,1.58A1.58,1.58,0,0,1,25.47,18.13Z"/><path class="cls-2" d="M59.94,19.63q0,1.8-1.5,1.8h-7V26.9H47.56V16.12a1.36,1.36,0,0,1,1.54-1.54H60.86c0,1.19-.5,1.79-1.49,1.79h-8v3.26Z"/><path class="cls-2" d="M65.89,14.58V26.9H62V14.58Z"/><path class="cls-2" d="M72,15.6l5.6,6.45V14.58h3.85v10.7c0,1.08-.57,1.62-1.72,1.62h-.57a4.18,4.18,0,0,1-3-1.36L71,19.43V26.9H67.15V16.22c0-1.09.46-1.64,1.39-1.64h1.67A2.91,2.91,0,0,1,72,15.6Z"/><path class="cls-2" d="M86.56,26.9H82.71l4-10.76a2.16,2.16,0,0,1,2.16-1.56h3.7a2.15,2.15,0,0,1,2.15,1.56l4,10.76H94.93l-1.61-4.13H88.18ZM88.85,21h3.8l-1.9-5.24Z"/><path class="cls-2" d="M104.85,15.6l5.6,6.45V14.58h3.85v10.7c0,1.08-.58,1.62-1.72,1.62H112a4.16,4.16,0,0,1-3-1.36l-5.24-6.11V26.9H100V16.22c0-1.09.46-1.64,1.38-1.64H103A2.9,2.9,0,0,1,104.85,15.6Z"/><path class="cls-2" d="M127.86,15.22q2.56,1.2,2.64,4.59h-3.85q-.06-3.28-3.49-3.28-3.75,0-3.75,4.39,0,4.54,3.75,4.54c2.32,0,3.49-1.16,3.49-3.49h3.85c0,2-.49,3.38-1.48,4.14s-3,1.13-6,1.13-4.87-.3-5.61-.88c-1.22-.92-1.82-2.71-1.82-5.37,0-3,.86-4.95,2.59-5.77a16.56,16.56,0,0,1,9.66,0Z"/><path class="cls-2" d="M131.81,25.21a1.5,1.5,0,0,1,.85-1.06,3.19,3.19,0,0,1,1.79-.33,2.71,2.71,0,0,1,1.62.55,1.08,1.08,0,0,1,.46,1.15,1.42,1.42,0,0,1-.79,1.05,3,3,0,0,1-1.75.33,2.74,2.74,0,0,1-1.62-.55A1.28,1.28,0,0,1,131.81,25.21Z"/><path class="cls-2" d="M141.75,14.58V26.9H137.9V14.58Z"/><path class="cls-2" d="M146.86,26.9H143l4-10.76a2.15,2.15,0,0,1,2.15-1.56h3.7a2.15,2.15,0,0,1,2.16,1.56l4,10.76h-3.85l-1.62-4.13h-5.14ZM149.14,21h3.8L151,15.73Z"/></svg>